<?xml version="1.0" encoding="UTF-8"?>
<svg version="1.1" xmlns="http://www.w3.org/2000/svg" width="300" height="100">
<path d="M0 0 C2 2 2 2 2.375 5.625 C2.08753503 14.02200318 -2.75459172 19.42649704 -8.6328125 25.015625 C-13.74433528 29.30053188 -19.22354866 32 -26 32 C-33.29644195 29.92977937 -38.47921742 24.39050211 -42.1796875 17.9453125 C-43.33715568 15.20045938 -43.25581215 12.94183972 -43 10 C-41 8 -41 8 -37.3125 7.625 C-32.63465331 7.71051822 -29.84208308 9.43861128 -26 12 C-25.73058594 11.401875 -25.46117188 10.80375 -25.18359375 10.1875 C-21.70566974 3.75965364 -15.28198435 0.77797419 -8.59375 -1.4453125 C-5.14075228 -2.18375478 -3.06133915 -1.72690927 0 0 Z M-23 12 C-23.98443655 14.37395225 -24.23709963 15.41972986 -23.2578125 17.81640625 C-22.88398437 18.39261719 -22.51015625 18.96882813 -22.125 19.5625 C-20.70353789 21.79409611 -19.85368921 23.43893236 -19 26 C-12.6935139 24.9160727 -8.34285404 19.72160775 -4.5625 14.875 C-3.0389248 12.07162163 -2.08389894 10.18815954 -2 7 C-2.99034226 4.59616005 -2.99034226 4.59616005 -5 3 C-11.89431994 1.6956692 -18.6284457 7.07447463 -23 12 Z M-38 12 C-38.79356801 13.74671588 -38.79356801 13.74671588 -39 16 C-37.73538192 18.60775041 -37.73538192 18.60775041 -36 21 C-35.01 22.485 -35.01 22.485 -34 24 C-33.01 24 -32.02 24 -31 24 C-30.34 21.03 -29.68 18.06 -29 15 C-32.44069624 12.70620251 -33.72290301 12 -38 12 Z M-26 19 C-27.26472065 20.05429686 -27.26472065 20.05429686 -27.25 22.4375 C-27.1675 23.283125 -27.085 24.12875 -27 25 C-25.515 25.99 -25.515 25.99 -24 27 C-23.23043864 24.65466049 -23.23043864 24.65466049 -23 22 C-24.33378575 20.1645201 -24.33378575 20.1645201 -26 19 Z " fill="#F4B8AC" transform="translate(106,10)"/>
<path d="M0 0 C2 2 2 2 2.375 5.1875 C1.91484377 9.86575497 0.54430059 12.10403972 -2 16 C-1.22076172 16.60134766 -1.22076172 16.60134766 -0.42578125 17.21484375 C5.33684327 21.91228814 10.15750825 26.88024246 11.40625 34.46875 C11.62773093 40.1534271 11.62773093 40.1534271 9.72265625 42.72265625 C7.00965954 44.73433408 4.82689938 44.59715192 1.53125 44.46875 C-7.28402754 42.8362912 -13.9073094 35.97344445 -19 29 C-21.76230548 24.50776584 -22.81401465 20.24587221 -22 15 C-17.98970818 6.32622488 -10.20326116 -1.66583856 0 0 Z M-13 8 C-13.66 8.99 -14.32 9.98 -15 11 C-10.94835726 12.60181225 -8.18841807 13.5124843 -4 12 C-1.66608797 9.21885944 -1.66608797 9.21885944 -2.375 6.3125 C-2.58125 5.549375 -2.7875 4.78625 -3 4 C-7.76951495 4 -9.27200004 5.16347829 -13 8 Z M-16 16 C-16 17.32 -16 18.64 -16 20 C-14.02 19.34 -12.04 18.68 -10 18 C-10 17.34 -10 16.68 -10 16 C-11.98 16 -13.96 16 -16 16 Z M-8.75 19.875 C-11.5017506 21.67422154 -13.92129247 22.91339734 -17 24 C-14.29620029 30.5209287 -9.85678767 35.88287362 -3.4375 39 C0.22519944 40.06551256 2.34985399 39.97930747 6 39 C7.14467859 35.18440472 7.16306706 32.64804979 5.5625 29.0625 C3.0124897 24.40244597 -0.7485523 21.11318825 -5 18 C-6.41702573 17.90611053 -6.41702573 17.90611053 -8.75 19.875 Z " fill="#F4B6A9" transform="translate(113,32)"/>
<path d="M0 0 C5.46155786 3.62810416 9.50671051 7.92938212 12 14 C11.69491525 20.30508475 11.69491525 20.30508475 10 22 C5.91144375 22.32067108 3.50351731 22.2566951 -0.1875 20.375 C-1.115625 19.92125 -2.04375 19.4675 -3 19 C-6.21851618 20.16386747 -8.39871003 22.12530153 -10.875 24.4375 C-16.40239347 29.32359367 -20.5780314 31.32205214 -27.94921875 31.3984375 C-30.55095018 30.89295825 -31.43103818 30.11299812 -33 28 C-33.98755038 20.96370356 -31.95634576 15.82359305 -28 10 C-20.89092481 1.85535087 -10.80189784 -5.0992743 0 0 Z M-8 3 C-7.74438677 5.3431213 -7.40729228 7.67843403 -7 10 C-6.34 10.33 -5.68 10.66 -5 11 C-4.3121764 8.64632287 -4.3121764 8.64632287 -4 6 C-4.66 5.01 -5.32 4.02 -6 3 C-6.66 3 -7.32 3 -8 3 Z M-23 10 C-26.94862653 14.22860249 -29 18.04731259 -29 24 C-28.16666667 26.16666667 -28.16666667 26.16666667 -26 27 C-18.82889018 26.86469604 -14.54203605 23.62097483 -9.625 18.75 C-8.75875 17.8425 -7.8925 16.935 -7 16 C-7.268125 15.505 -7.53625 15.01 -7.8125 14.5 C-9.43875493 11.0763054 -10.69515171 7.55867715 -12 4 C-16.75283106 4 -19.53860524 6.93669937 -23 10 Z M0 6 C-0.66 8.97 -1.32 11.94 -2 15 C0.35968744 17.09749995 1.54616994 17.96905704 4.75 18.1875 C5.4925 18.125625 6.235 18.06375 7 18 C7.88556744 16.31026274 7.88556744 16.31026274 8 14 C5.69155441 9.72510075 4.41956659 8.2097833 0 6 Z " fill="#F3B6AB" transform="translate(89,61)"/>
<path d="M0 0 C8.1309049 3.76014179 15.37079024 10.04595886 18.9765625 18.3515625 C20.38208237 23.13859783 20.39000864 26.3089592 18.5390625 30.9765625 C15.02491491 36.22941726 9.8081147 40.87579285 3.9765625 43.3515625 C0.55205342 43.77089014 -1.22431974 43.90852336 -4.0859375 41.9140625 C-5.6193856 37.72263768 -3.63748237 34.33531869 -2.0234375 30.3515625 C-1.6934375 29.3615625 -1.3634375 28.3715625 -1.0234375 27.3515625 C-1.82007813 26.60712891 -1.82007813 26.60712891 -2.6328125 25.84765625 C-9.39387137 19.34568905 -13.7064508 14.0196568 -14.0234375 4.3515625 C-13.2109375 1.9140625 -13.2109375 1.9140625 -12.0234375 0.3515625 C-8.24283202 -1.53874024 -3.95092425 -1.26612631 0 0 Z M-9.0234375 5.3515625 C-9.86947226 10.42777106 -8.22290406 13.38244951 -5.44921875 17.4453125 C-3.47216452 20.08860693 -1.64215058 22.32205987 0.9765625 24.3515625 C5.59629435 24.47642012 9.97220359 21.48788301 13.9765625 19.3515625 C13.05670231 14.13514016 9.74644213 10.88265897 5.9765625 7.3515625 C1.40227004 4.23862245 -4.46371647 0.79184147 -9.0234375 5.3515625 Z M6.9765625 25.3515625 C6.9765625 26.0115625 6.9765625 26.6715625 6.9765625 27.3515625 C11.11749948 27.56126809 11.11749948 27.56126809 14.9765625 26.3515625 C14.6465625 25.3615625 14.3165625 24.3715625 13.9765625 23.3515625 C11.330029 23.3515625 9.3957462 24.33295884 6.9765625 25.3515625 Z M2.9765625 29.3515625 C0.41268207 32.90428355 0.41268207 32.90428355 0.2890625 37.1640625 C0.5159375 37.8859375 0.7428125 38.6078125 0.9765625 39.3515625 C5.85019097 38.89820171 8.36698639 37.6426466 11.9765625 34.3515625 C11.6465625 33.3615625 11.3165625 32.3715625 10.9765625 31.3515625 C9.10269034 30.54943622 9.10269034 30.54943622 6.9140625 30.1640625 C6.18058594 30.00550781 5.44710937 29.84695312 4.69140625 29.68359375 C4.12550781 29.57402344 3.55960938 29.46445312 2.9765625 29.3515625 Z " fill="#F3B7AB" transform="translate(53.0234375,25.6484375)"/>
<path d="M0 0 C4.62 0 9.24 0 14 0 C14 0.99 14 1.98 14 3 C13.01 3.495 13.01 3.495 12 4 C12.68528514 8.14286017 13.97890443 11.84113813 15.5 15.75 C15.9434375 16.89984375 16.386875 18.0496875 16.84375 19.234375 C17.73764601 21.86419176 17.73764601 21.86419176 19 23 C20.17094005 20.2100561 21.33690927 17.41821403 22.5 14.625 C22.83386719 13.8309375 23.16773438 13.036875 23.51171875 12.21875 C23.82753906 11.45820312 24.14335937 10.69765625 24.46875 9.9140625 C24.76201172 9.2123291 25.05527344 8.5105957 25.35742188 7.78759766 C26.11275781 6.00291439 26.11275781 6.00291439 26 4 C25.34 3.67 24.68 3.34 24 3 C24 2.01 24 1.02 24 0 C27.3 0 30.6 0 34 0 C34.495 1.485 34.495 1.485 35 3 C34.1032959 3.29269775 34.1032959 3.29269775 33.18847656 3.59130859 C29.99875864 5.6444849 29.38159997 8.04600008 27.984375 11.5390625 C27.59333588 12.50034561 27.59333588 12.50034561 27.19439697 13.48104858 C26.36671341 15.52411422 25.55822357 17.57416872 24.75 19.625 C24.19135367 21.0135242 23.63147178 22.40155198 23.0703125 23.7890625 C21.69917106 27.18707039 20.3451374 30.59160151 19 34 C18.01 34 17.02 34 16 34 C14.44794361 30.37205389 12.89980494 26.74246368 11.35522461 23.11132812 C10.57155393 21.27125875 9.78481794 19.43249586 8.99804688 17.59375 C8.50498047 16.43359375 8.01191406 15.2734375 7.50390625 14.078125 C7.04830322 13.00981445 6.5927002 11.94150391 6.12329102 10.84082031 C5.21720203 8.54930729 4.50957233 6.40335604 4 4 C2.68 3.67 1.36 3.34 0 3 C0 2.01 0 1.02 0 0 Z " fill="#F3B7AC" transform="translate(124,31)"/>
<path d="M0 0 C2.64 0 5.28 0 8 0 C9.25042068 4.14201849 9.03173318 8.05614012 8.9375 12.34375 C8.99418931 14.75304585 9.30690941 16.70413742 10 19 C12.41619823 19.25030977 12.41619823 19.25030977 15 19 C17.35119399 15.47320901 17.21443452 13.97120515 17.125 9.8125 C17.10695312 8.72582031 17.08890625 7.63914062 17.0703125 6.51953125 C17.04710937 5.68808594 17.02390625 4.85664062 17 4 C16.34 3.67 15.68 3.34 15 3 C15 2.01 15 1.02 15 0 C17.64 0 20.28 0 23 0 C23.33 6.93 23.66 13.86 24 21 C24.99 21 25.98 21 27 21 C26.67 21.99 26.34 22.98 26 24 C23.69 24 21.38 24 19 24 C19 23.01 19 22.02 19 21 C17.948125 21.7425 17.948125 21.7425 16.875 22.5 C13.54199763 24.23895776 11.70934317 24.47353317 8 24 C4.8640843 22.22015595 4.15897264 21.47691793 3 18 C2.72971771 14.35333415 2.5544294 10.70706284 2.37890625 7.0546875 C2.25386719 6.04664063 2.12882813 5.03859375 2 4 C1.34 3.67 0.68 3.34 0 3 C0 2.01 0 1.02 0 0 Z " fill="#F5B8AC" transform="translate(218,41)"/>
<path d="M0 0 C3 2.1875 3 2.1875 5 5 C5 6.65 5 8.3 5 10 C0.05 10 -4.9 10 -10 10 C-9.731875 11.27875 -9.46375 12.5575 -9.1875 13.875 C-8.96126953 14.95394531 -8.96126953 14.95394531 -8.73046875 16.0546875 C-8.07691162 18.37046549 -8.07691162 18.37046549 -5 20 C-2.51948778 19.73740217 -2.51948778 19.73740217 0 19 C0.763125 18.814375 1.52625 18.62875 2.3125 18.4375 C2.869375 18.293125 3.42625 18.14875 4 18 C4 18.99 4 19.98 4 21 C1.13072352 23.34758985 -0.79930743 23.97849722 -4.5 24.375 C-9.32756847 23.85776052 -11.7284599 22.53461736 -14.8125 18.8125 C-16.36220573 15.14214432 -16.69233655 11.88773603 -16 8 C-14.39076503 4.89647542 -12.99652733 2.78298576 -10.25 0.625 C-6.7767521 -0.33979108 -3.53039628 -0.6851066 0 0 Z M-9 5 C-9 5.66 -9 6.32 -9 7 C-6.36 7 -3.72 7 -1 7 C-1 6.01 -1 5.02 -1 4 C-5.17810069 2.81068813 -5.17810069 2.81068813 -9 5 Z " fill="#F5B7AC" transform="translate(172,41)"/>
<path d="M0 0 C0.93423645 3.01031744 1.04449911 3.86650268 0 7 C-0.99 6.67 -1.98 6.34 -3 6 C-3.33 5.34 -3.66 4.68 -4 4 C-6.02463255 3.34786708 -6.02463255 3.34786708 -8 3 C-6.63631551 7.90926415 -4.26755711 9.42168424 0 12 C2 14 2 14 2.375 16.875 C2 20 2 20 0.6875 22.4375 C-3.69165 24.98351744 -8.14493849 23.77011321 -13 23 C-13 20.36 -13 17.72 -13 15 C-12.34 15 -11.68 15 -11 15 C-10.54625 15.825 -10.0925 16.65 -9.625 17.5 C-9.08875 18.325 -8.5525 19.15 -8 20 C-6.68 20 -5.36 20 -4 20 C-4.36414745 17.3006848 -4.66878648 16.26118952 -6.84765625 14.54296875 C-7.57855469 14.09566406 -8.30945313 13.64835937 -9.0625 13.1875 C-12.90443398 10.46986627 -12.90443398 10.46986627 -13.75 6.3125 C-13 3 -13 3 -11.5625 1.0625 C-7.74098146 -0.52203208 -4.08137509 -0.23546395 0 0 Z " fill="#F4B8AC" transform="translate(261,41)"/>
<path d="M0 0 C0 2.31 0 4.62 0 7 C-0.99 6.67 -1.98 6.34 -3 6 C-3.33 5.34 -3.66 4.68 -4 4 C-5.32 4 -6.64 4 -8 4 C-6.4882584 8.23287649 -3.6677386 9.63125215 0 12 C2 15 2 15 1.8125 18.5625 C1 22 1 22 -2 24 C-5.84889483 24.20993972 -9.31233808 24.18005182 -13 23 C-13.625 20.125 -13.625 20.125 -14 17 C-13.34 16.34 -12.68 15.68 -12 15 C-11.4225 15.825 -10.845 16.65 -10.25 17.5 C-9.13625 18.7375 -9.13625 18.7375 -8 20 C-6.68 20 -5.36 20 -4 20 C-4.36414745 17.3006848 -4.66878648 16.26118952 -6.84765625 14.54296875 C-7.57855469 14.09566406 -8.30945313 13.64835937 -9.0625 13.1875 C-12.90443398 10.46986627 -12.90443398 10.46986627 -13.75 6.3125 C-13 3 -13 3 -11.5625 1.0625 C-7.74098146 -0.52203208 -4.08137509 -0.23546395 0 0 Z " fill="#F3B9AD" transform="translate(214,41)"/>
<path d="M0 0 C0.5625 1.9375 0.5625 1.9375 1 4 C-0.96822886 5.96822886 -4.34808709 5.66248381 -7 6 C-9.59227518 10.86051596 -9.18689553 15.65271133 -9 21 C-8.01 21 -7.02 21 -6 21 C-6.33 21.99 -6.66 22.98 -7 24 C-8.45823212 24.0270043 -9.91660675 24.04639787 -11.375 24.0625 C-12.18710938 24.07410156 -12.99921875 24.08570312 -13.8359375 24.09765625 C-16 24 -16 24 -18 23 C-18 22.34 -18 21.68 -18 21 C-17.34 20.67 -16.68 20.34 -16 20 C-15.68758629 17.45058627 -15.48696579 14.99638487 -15.375 12.4375 C-15.33632812 11.72658203 -15.29765625 11.01566406 -15.2578125 10.28320312 C-15.16328217 8.52257575 -15.08054183 6.76132272 -15 5 C-16.32 4.34 -17.64 3.68 -19 3 C-17 1 -17 1 -13.375 0.875 C-11.704375 0.936875 -11.704375 0.936875 -10 1 C-10 1.66 -10 2.32 -10 3 C-9.195625 2.2575 -9.195625 2.2575 -8.375 1.5 C-5.40641555 -0.37489544 -3.44687573 -0.23501425 0 0 Z " fill="#F5B9AF" transform="translate(198,41)"/>
<path d="M0 0 C2.64 0 5.28 0 8 0 C8.33 1.32 8.66 2.64 9 4 C7.68 4.33 6.36 4.66 5 5 C4.67 9.29 4.34 13.58 4 18 C3.67 18 3.34 18 3 18 C2.95101562 17.00097656 2.90203125 16.00195312 2.8515625 14.97265625 C2.77679688 13.68230469 2.70203125 12.39195313 2.625 11.0625 C2.55539063 9.77472656 2.48578125 8.48695312 2.4140625 7.16015625 C2.27742187 6.11730469 2.14078125 5.07445312 2 4 C1.34 3.67 0.68 3.34 0 3 C0 2.01 0 1.02 0 0 Z " fill="#F0BBB1" transform="translate(218,41)"/>
<path d="M0 0 C0.99 0.33 1.98 0.66 3 1 C-1.77399381 5.93312693 -1.77399381 5.93312693 -6.4375 6.1875 C-10 6 -10 6 -13 4 C-11.68 4 -10.36 4 -9 4 C-9 3.34 -9 2.68 -9 2 C-7.329375 1.7834375 -7.329375 1.7834375 -5.625 1.5625 C-2.17857953 1.21627965 -2.17857953 1.21627965 0 0 Z " fill="#EBB3AA" transform="translate(174,59)"/>
<path d="M0 0 C1.125 3.75 1.125 3.75 0 6 C-0.66 6 -1.32 6 -2 6 C-2 7.65 -2 9.3 -2 11 C-2.99 11.33 -3.98 11.66 -5 12 C-6 9 -6 9 -5.29296875 6.9921875 C-4.92816406 6.29351562 -4.56335937 5.59484375 -4.1875 4.875 C-3.83042969 4.17117187 -3.47335938 3.46734375 -3.10546875 2.7421875 C-2 1 -2 1 0 0 Z " fill="#F4B2AC" transform="translate(54,54)"/>
<path d="M0 0 C0.99 0 1.98 0 3 0 C4.42258812 3.82320557 5.24042276 6.91281305 5 11 C4.34 11 3.68 11 3 11 C1.72746564 7.35206816 0.67170806 3.8063457 0 0 Z " fill="#F1B5AA" transform="translate(68,42)"/>
<path d="M0 0 C1.98 0 3.96 0 6 0 C6.66 1.32 7.32 2.64 8 4 C6.02 4.33 4.04 4.66 2 5 C1.34 3.35 0.68 1.7 0 0 Z " fill="#F8C0B4" transform="translate(50,50)"/>
<path d="M0 0 C0.99 0 1.98 0 3 0 C3 0.66 3 1.32 3 2 C2.34 2 1.68 2 1 2 C1.309375 2.763125 1.61875 3.52625 1.9375 4.3125 C2.67893593 6.18789677 3.36228217 8.08684652 4 10 C2.0625 9.4375 2.0625 9.4375 0 8 C-0.8125 4.4375 -0.8125 4.4375 -1 1 C-0.67 0.67 -0.34 0.34 0 0 Z " fill="#FCBCB4" transform="translate(67,40)"/>
<path d="M0 0 C2.64 0.66 5.28 1.32 8 2 C7.67 2.66 7.34 3.32 7 4 C5.02 4 3.04 4 1 4 C0.67 2.68 0.34 1.36 0 0 Z " fill="#E9BDB0" transform="translate(252,61)"/>
<path d="M0 0 C0.66 0 1.32 0 2 0 C2.93423645 3.01031744 3.04449911 3.86650268 2 7 C1.01 6.67 0.02 6.34 -1 6 C-0.67 4.02 -0.34 2.04 0 0 Z " fill="#F4C0BC" transform="translate(259,41)"/>
<path d="M0 0 C1.65 0 3.3 0 5 0 C5 0.66 5 1.32 5 2 C4.34 2 3.68 2 3 2 C3 2.66 3 3.32 3 4 C1.68 4 0.36 4 -1 4 C-0.67 2.68 -0.34 1.36 0 0 Z " fill="#F9AEA1" transform="translate(81,38)"/>
<path d="M0 0 C3.3 0 6.6 0 10 0 C10.33 0.99 10.66 1.98 11 3 C10.01 3 9.02 3 8 3 C8 2.34 8 1.68 8 1 C5.69 1 3.38 1 1 1 C0.67 1.66 0.34 2.32 0 3 C0 2.01 0 1.02 0 0 Z " fill="#E4B8AF" transform="translate(148,31)"/>
<path d="M0 0 C1.32 0.66 2.64 1.32 4 2 C3.67 3.32 3.34 4.64 3 6 C1.68 5.34 0.36 4.68 -1 4 C-0.67 2.68 -0.34 1.36 0 0 Z " fill="#F6BEB5" transform="translate(72,18)"/>
<path d="M0 0 C0.99 0.33 1.98 0.66 3 1 C2.34 1 1.68 1 1 1 C1 2.65 1 4.3 1 6 C0.01 6.33 -0.98 6.66 -2 7 C-2 3 -2 3 0 0 Z " fill="#FAAAA2" transform="translate(51,59)"/>
<path d="M0 0 C0.66 0 1.32 0 2 0 C2 1.32 2 2.64 2 4 C1.34 4 0.68 4 0 4 C0 4.66 0 5.32 0 6 C-0.66 6 -1.32 6 -2 6 C-1.125 1.125 -1.125 1.125 0 0 Z " fill="#FCB4A9" transform="translate(140,53)"/>
</svg>
