<?xml version="1.0" encoding="UTF-8"?>
<svg version="1.1" xmlns="http://www.w3.org/2000/svg" width="4000" height="4000">
<path d="M0 0 C4.45310927 2.0678764 8.97802844 3.97221665 13.48876953 5.91015625 C86.98292906 37.80592451 154.41860636 81.23847302 213.03564453 136.015625 C215.6521508 138.45854864 218.31878473 140.84009627 220.99291992 143.21972656 C226.02264848 147.74392304 230.84887454 152.43754477 235.62548828 157.2265625 C236.46038284 158.06050034 237.2952774 158.89443817 238.1554718 159.75364685 C239.90362234 161.50112252 241.65053339 163.24983898 243.39624023 164.99975586 C246.05160912 167.66049653 248.7122957 170.31583555 251.37353516 172.97070312 C253.08284035 174.68066895 254.79183539 176.39094487 256.50048828 178.1015625 C257.28606613 178.88511612 258.07164398 179.66866974 258.88102722 180.47596741 C263.04356419 184.65604571 267.05072539 188.91476453 270.89463806 193.39041138 C272.95309152 195.78249418 275.0974967 198.09224644 277.23876953 200.41015625 C281.69065608 205.29653623 285.89680083 210.33301168 290.04443359 215.47802734 C291.51841816 217.28750433 293.01367207 219.0779923 294.51220703 220.8671875 C302.88289469 230.88401868 310.83655177 241.15893557 318.57617188 251.67041016 C319.71892884 253.22207496 320.86478935 254.77146196 322.01464844 256.31787109 C367.91002288 318.05286722 408.79883902 392.5616154 417.36376953 470.09765625 C417.50298828 471.34748291 417.50298828 471.34748291 417.64501953 472.62255859 C421.55122689 511.10567643 416.03627716 550.34962464 391.42211914 581.18774414 C382.21437305 592.33707017 371.22759829 600.60804132 358.36376953 607.09765625 C357.75049805 607.40832031 357.13722656 607.71898438 356.50537109 608.0390625 C348.67845601 611.9180313 340.76767407 614.75906957 332.30126953 616.91015625 C331.53540527 617.10504639 330.76954102 617.29993652 329.98046875 617.50073242 C316.86444573 620.60658258 303.84039097 621.47908461 290.42626953 621.41015625 C289.66475586 621.4080011 288.90324219 621.40584595 288.11865234 621.40362549 C239.5164552 621.18438842 191.5086881 605.8790859 147.84765625 585.26757812 C145.18425297 584.01310314 142.51060697 582.78209888 139.83642578 581.55078125 C126.8423736 575.51168074 114.33624712 568.81094308 101.95458984 561.60400391 C99.62614006 560.25020301 97.28990577 558.91146907 94.94970703 557.578125 C71.42828355 544.08286476 48.87202223 528.60046227 27.36376953 512.09765625 C26.35701172 511.33453125 25.35025391 510.57140625 24.31298828 509.78515625 C12.24033422 500.60800635 0.4451868 491.06892006 -10.94458008 481.05517578 C-14.34981572 478.0884736 -17.82759009 475.52809493 -21.63623047 473.09765625 C-25.47353049 478.34982667 -29.29698262 483.6100506 -33.0637207 488.91308594 C-42.85497957 502.68672226 -52.80083029 516.28316998 -63.55029297 529.328125 C-66.49902721 532.90978071 -69.35460218 536.55779087 -72.19873047 540.22265625 C-77.30745382 546.77712238 -82.68124625 553.07840443 -88.12890625 559.35205078 C-89.62058369 561.079536 -91.09743573 562.8185584 -92.56982422 564.5625 C-98.4549462 571.52013506 -104.51572902 578.26799123 -110.76538086 584.90063477 C-113.72377877 588.04106247 -116.64017811 591.19601183 -119.44873047 594.47265625 C-122.52424081 598.05171363 -125.84409768 601.34409459 -129.22998047 604.62890625 C-131.14374087 606.59237471 -132.92217036 608.5763258 -134.70263672 610.65625 C-139.09041255 615.71073217 -143.81162327 620.42328109 -148.55151367 625.14331055 C-150.07114715 626.65758205 -151.58535564 628.17713055 -153.09912109 629.69726562 C-157.91984051 634.52093837 -162.79651352 639.2225277 -167.98022461 643.65991211 C-170.1418984 645.5366771 -172.1435345 647.54364655 -174.13623047 649.59765625 C-177.44609745 652.94699354 -180.84369996 656.09691581 -184.41748047 659.16015625 C-186.62023002 661.08368402 -188.76936747 663.05870739 -190.9128418 665.04785156 C-196.11990222 669.87830851 -201.45277886 674.46141011 -206.98779297 678.91796875 C-209.60898166 681.07523024 -212.12777328 683.31076625 -214.63623047 685.59765625 C-219.81170021 690.30189013 -225.18766937 694.71481112 -230.63623047 699.09765625 C-231.7457983 699.99976287 -232.85516487 700.90211708 -233.96435547 701.8046875 C-243.54059316 709.56460573 -253.37081886 716.96361014 -263.25830078 724.32080078 C-265.40071805 725.9216748 -267.53288418 727.53469765 -269.65966797 729.15625 C-286.43080725 741.92166717 -303.82155962 753.83977398 -321.63623047 765.09765625 C-322.94333984 765.92982666 -322.94333984 765.92982666 -324.27685547 766.77880859 C-398.79286256 814.18755965 -480.41197355 853.00501496 -568.07373047 867.84765625 C-569.24468262 868.04641357 -570.41563477 868.2451709 -571.62207031 868.44995117 C-588.54509179 871.19591091 -605.17224227 872.45015587 -622.31396484 872.41333008 C-625.36966825 872.41017336 -628.42439577 872.43373363 -631.47998047 872.45898438 C-649.68203758 872.51831787 -667.70152133 870.82499256 -685.38623047 866.34765625 C-686.94349854 865.95924561 -686.94349854 865.95924561 -688.53222656 865.56298828 C-718.82008555 857.76855849 -745.36231179 843.05246435 -767.63623047 821.09765625 C-768.47412109 820.27265625 -769.31201172 819.44765625 -770.17529297 818.59765625 C-806.25256634 781.03147953 -815.57986869 727.60561401 -814.81816101 677.4826355 C-813.06155765 594.61201255 -778.44294746 510.80349383 -737.35351562 440.0625 C-735.63377314 437.09341375 -733.93762482 434.11164622 -732.24169922 431.12890625 C-723.86542799 416.55731647 -714.76966763 402.51771799 -705.44873047 388.53515625 C-704.56820511 387.21226089 -704.56820511 387.21226089 -703.66989136 385.86264038 C-691.62206967 367.79417034 -678.95553693 350.24888937 -665.63623047 333.09765625 C-665.14348633 332.46311523 -664.65074219 331.82857422 -664.14306641 331.17480469 C-655.89247615 320.57165877 -647.4259544 310.16214085 -638.71777344 299.93115234 C-635.8442267 296.54915499 -633.03755263 293.12293169 -630.26123047 289.66015625 C-626.18531945 284.64590601 -621.84770253 279.91723338 -617.41601562 275.21899414 C-614.66809919 272.30387644 -611.97394656 269.35805156 -609.34985352 266.33056641 C-597.6362575 252.91580701 -585.02884485 240.33035243 -572.42700195 227.75805664 C-569.67460452 225.0110778 -566.9276715 222.25871422 -564.18115234 219.50585938 C-562.40738477 217.73275177 -560.63330747 215.95995394 -558.85888672 214.1875 C-558.05040787 213.37699692 -557.24192902 212.56649384 -556.40895081 211.73143005 C-552.20412771 207.54377947 -547.92967064 203.50399517 -543.42095947 199.64427185 C-540.29642731 196.93660577 -537.32391268 194.06636276 -534.32373047 191.22265625 C-529.12519616 186.32915777 -523.81632693 181.68655505 -518.23388672 177.23046875 C-515.50068161 174.9863635 -512.91486454 172.62897872 -510.32373047 170.22265625 C-505.71351689 165.97968586 -500.91696089 162.09888962 -495.96459961 158.27172852 C-491.96582531 155.17255621 -488.09185496 151.96403285 -484.26123047 148.66015625 C-477.63821375 142.97836372 -470.68485737 137.78558619 -463.66699219 132.60498047 C-461.68974126 131.1373744 -459.72538077 129.65428613 -457.76513672 128.1640625 C-426.26346738 104.24000478 -392.9526697 82.73629218 -358.63623047 63.09765625 C-357.84925781 62.64680664 -357.06228516 62.19595703 -356.25146484 61.73144531 C-291.21066021 24.63559904 -222.32526266 -2.0445422 -148.63623047 -15.71484375 C-147.81358704 -15.86809113 -146.9909436 -16.0213385 -146.14337158 -16.17922974 C-98.2071545 -25.06295106 -44.3565785 -21.01968572 0 0 Z M-126.13623047 94.59765625 C-143.13167324 115.12411568 -146.38284548 141.81812327 -144.17236328 167.58007812 C-141.24272264 196.46710247 -131.35492141 225.12934571 -118.63623047 251.09765625 C-117.98514472 252.45440593 -117.33410181 253.81117617 -116.68310547 255.16796875 C-99.05065191 291.48723378 -76.14577994 323.94626092 -50.63623047 355.09765625 C-49.69339881 356.25120129 -48.75068313 357.40484115 -47.80810547 358.55859375 C-45.75257401 361.07306463 -43.69542438 363.58618461 -41.63623047 366.09765625 C-7.950802 315.56951355 5.31061613 235.1960621 -6.32373047 176.59765625 C-13.56141889 142.86237294 -33.04023891 113.63240312 -61.95629883 94.63208008 C-82.7799392 81.30610696 -107.23453874 74.67194511 -126.13623047 94.59765625 Z M-241.58935547 90.30078125 C-242.30775101 90.53409653 -243.02614655 90.7674118 -243.76631165 91.00779724 C-282.54011856 103.66279676 -319.83655635 119.80259929 -355.00634766 140.55029297 C-357.68759243 142.12787646 -360.38292057 143.67892229 -363.08154297 145.2265625 C-377.00120796 153.26147095 -390.37376123 162.02548333 -403.63623047 171.09765625 C-404.51553223 171.69723145 -405.39483398 172.29680664 -406.30078125 172.91455078 C-419.41110037 181.88081789 -432.08422406 191.36867502 -444.63623047 201.09765625 C-445.31975586 201.62520508 -446.00328125 202.15275391 -446.70751953 202.69628906 C-454.63869745 208.82252439 -462.37050803 215.14914406 -469.97558594 221.67529297 C-471.69247014 223.14582625 -473.41571729 224.60862548 -475.14013672 226.0703125 C-481.37377727 231.36625472 -487.51040549 236.74305098 -493.51269531 242.30029297 C-496.24142664 244.8265552 -499.00163372 247.30133064 -501.82373047 249.72265625 C-505.5501498 252.94759058 -508.9812189 256.42698351 -512.44091797 259.93359375 C-514.32503534 261.79089095 -516.24122009 263.51745268 -518.26123047 265.22265625 C-527.12083256 272.83442706 -535.50246732 281.35458298 -543.03466797 290.27734375 C-544.97660469 292.48452061 -547.0436117 294.53303239 -549.13623047 296.59765625 C-552.50723112 299.92886432 -555.68137077 303.34877253 -558.76513672 306.9453125 C-560.96702876 309.47817787 -563.23818873 311.94098147 -565.51123047 314.41015625 C-569.60503255 318.89913682 -573.49092714 323.51009101 -577.30419922 328.23828125 C-579.34071653 330.73531755 -581.41881024 333.18919573 -583.52026367 335.6315918 C-589.96740067 343.14115244 -595.9823074 350.94310333 -601.93261719 358.84960938 C-603.58863682 361.03485282 -605.26730614 363.20059698 -606.95263672 365.36328125 C-631.23889393 396.78647095 -652.22092515 430.95971709 -670.63623047 466.09765625 C-671.10480469 466.98420898 -671.57337891 467.87076172 -672.05615234 468.78417969 C-684.39187459 492.23954943 -694.48588491 516.89212529 -702.63623047 542.09765625 C-702.93722656 543.00821777 -703.23822266 543.9187793 -703.54833984 544.85693359 C-708.75911206 560.69201483 -712.55572562 576.7193955 -715.63623047 593.09765625 C-715.81702148 594.02884277 -715.9978125 594.9600293 -716.18408203 595.91943359 C-724.06190184 638.05715566 -720.61855112 687.33726999 -696.07202148 723.57519531 C-675.92844937 752.17725547 -646.17097896 769.61523867 -611.76733398 775.81689453 C-547.96245876 786.63262933 -482.61949655 768.19939387 -424.63623047 742.09765625 C-423.73970764 741.69516663 -423.73970764 741.69516663 -422.82507324 741.2845459 C-405.70050746 733.58827517 -388.9415801 725.42786385 -372.63623047 716.09765625 C-371.55615723 715.48615723 -370.47608398 714.8746582 -369.36328125 714.24462891 C-355.15934245 706.18314979 -341.27779143 697.73866945 -327.69873047 688.66015625 C-327.09037354 688.2535376 -326.4820166 687.84691895 -325.85522461 687.42797852 C-316.99319916 681.48742045 -308.28746089 675.3403167 -299.63623047 669.09765625 C-298.7703833 668.47366943 -297.90453613 667.84968262 -297.01245117 667.20678711 C-286.53196126 659.62312957 -276.32775436 651.77652892 -266.36425781 643.52587891 C-263.90468869 641.49303356 -261.42534232 639.48468002 -258.94873047 637.47265625 C-249.80420697 629.97332439 -240.81295799 622.34709042 -232.10107422 614.34765625 C-230.05507093 612.47998922 -227.9860589 610.65396028 -225.88623047 608.84765625 C-214.05174186 598.52959547 -202.871022 587.49570013 -191.79003906 576.38183594 C-189.61361778 574.19998717 -187.43180808 572.02362712 -185.24951172 569.84765625 C-183.8364301 568.43391473 -182.42365824 567.01986351 -181.01123047 565.60546875 C-180.37258057 564.96884308 -179.73393066 564.33221741 -179.07592773 563.67630005 C-175.29500967 559.87589977 -171.69766803 555.96321512 -168.20040894 551.89994812 C-165.79353408 549.12667699 -163.27301177 546.46300923 -160.76123047 543.78515625 C-156.30118691 538.99116485 -152.07313494 534.07254629 -147.97216797 528.96484375 C-145.2974749 525.68185928 -142.53388922 522.48525921 -139.76123047 519.28515625 C-133.8215712 512.39417962 -128.18499062 505.30527156 -122.63623047 498.09765625 C-122.02199219 497.30407715 -121.40775391 496.51049805 -120.77490234 495.69287109 C-112.52988792 485.03197879 -104.46291448 474.30581792 -96.97363281 463.09863281 C-95.56212824 460.98678698 -94.14053385 458.88195059 -92.71826172 456.77734375 C-85.47381464 446.0199036 -78.50736578 435.09662794 -71.63623047 424.09765625 C-74.73263154 419.85322376 -77.74695245 415.72217327 -81.57373047 412.09765625 C-85.49451268 408.27286306 -89.07932399 404.25999361 -92.63623047 400.09765625 C-93.49861328 399.10121094 -94.36099609 398.10476563 -95.24951172 397.078125 C-108.05189299 382.26595415 -120.31136504 367.14693685 -131.93896484 351.39160156 C-133.43733748 349.36647077 -134.94745341 347.3511031 -136.46435547 345.33984375 C-174.82061907 294.20763841 -206.64161728 235.91712756 -223.63623047 174.09765625 C-223.88308594 173.20788086 -224.12994141 172.31810547 -224.38427734 171.40136719 C-231.85812587 143.91789373 -233.36468154 116.40429142 -233.63623047 88.09765625 C-236.25848758 88.09765625 -239.09026201 89.48846329 -241.58935547 90.30078125 Z M88.36376953 119.09765625 C88.50008789 119.9491626 88.50008789 119.9491626 88.63916016 120.81787109 C93.3255504 151.46566168 93.16540227 183.4825215 88.36376953 214.09765625 C88.19748047 215.20077148 88.03119141 216.30388672 87.85986328 217.44042969 C80.37119948 266.15834806 63.84335117 313.67483475 42.77734375 358.11474609 C41.32800175 361.17313307 39.894587 364.23868974 38.46142578 367.3046875 C31.61119201 381.8603046 24.17188835 396.03508843 16.36376953 410.09765625 C15.87247559 410.98324219 15.38118164 411.86882813 14.875 412.78125 C13.70572004 414.88735033 12.53537929 416.99285136 11.36376953 419.09765625 C16.09068111 424.0545354 21.10393496 428.44236696 26.44189453 432.734375 C29.26823853 435.02038853 32.03396806 437.36575966 34.80126953 439.72265625 C61.77802149 462.20908434 91.34662522 481.67184052 122.36376953 498.09765625 C123.19134766 498.53674316 124.01892578 498.97583008 124.87158203 499.42822266 C170.76473663 523.5649396 227.37193804 543.65584781 279.09814453 527.96484375 C298.36291143 521.13625267 311.61339122 507.96411081 320.89111328 490.16796875 C337.46298923 453.80050847 327.01401286 410.39813104 313.67626953 374.72265625 C305.6334181 353.96825359 295.76004953 334.20034579 284.36376953 315.09765625 C283.70296387 313.98922363 283.70296387 313.98922363 283.02880859 312.85839844 C272.84276872 295.91347184 261.41405181 279.75932555 249.36376953 264.09765625 C248.9079248 263.50146484 248.45208008 262.90527344 247.98242188 262.29101562 C238.07092536 249.35150164 227.32665833 237.15196556 216.36376953 225.09765625 C215.57010986 224.21916016 214.7764502 223.34066406 213.95874023 222.43554688 C207.71091533 215.55866777 201.30271258 208.87903774 194.71948242 202.32299805 C193.16287564 200.77180898 191.61176782 199.21526233 190.06103516 197.65820312 C185.19785486 192.79178975 180.29167333 188.02377569 175.06030273 183.54907227 C172.66710742 181.50164873 170.36448858 179.35959578 168.05126953 177.22265625 C162.64885496 172.30193845 157.06208094 167.66973072 151.36376953 163.09765625 C150.24356437 162.18540336 149.12379248 161.27261822 148.00439453 160.359375 C120.20619409 134.60143651 120.20619409 134.60143651 88.36376953 119.09765625 Z " fill="#FFB7A9" transform="translate(2097.63623046875,2267.90234375)"/>
<path d="M0 0 C3.0557034 0.00315672 6.11043093 -0.02040356 9.16601562 -0.0456543 C27.36807274 -0.1049878 45.38755649 1.58833751 63.07226562 6.06567383 C64.62953369 6.45408447 64.62953369 6.45408447 66.21826172 6.8503418 C96.5061207 14.64477159 123.04834695 29.36086573 145.32226562 51.31567383 C146.16015625 52.14067383 146.99804688 52.96567383 147.86132812 53.81567383 C183.9386015 91.38185055 193.26590385 144.80771607 192.50419617 194.93069458 C190.7475928 277.80131753 156.12898262 361.60983625 115.03955078 432.35083008 C113.3198083 435.31991633 111.62365997 438.30168386 109.92773438 441.28442383 C101.55146315 455.85601361 92.45570279 469.89561208 83.13476562 483.87817383 C82.54774872 484.76010406 81.96073181 485.6420343 81.35592651 486.5506897 C69.30810483 504.61915974 56.64157209 522.16444071 43.32226562 539.31567383 C42.82952148 539.95021484 42.33677734 540.58475586 41.82910156 541.23852539 C33.5785113 551.84167131 25.11198956 562.25118922 16.40380859 572.48217773 C13.53026186 575.86417509 10.72358779 579.29039838 7.94726562 582.75317383 C3.87135461 587.76742407 -0.46626231 592.4960967 -4.89794922 597.19433594 C-7.64586565 600.10945363 -10.34001828 603.05527852 -12.96411133 606.08276367 C-24.67770734 619.49752307 -37.28511999 632.08297765 -49.88696289 644.65527344 C-52.63936032 647.40225228 -55.38629334 650.15461586 -58.1328125 652.9074707 C-59.90658007 654.68057831 -61.68065738 656.45337613 -63.45507812 658.22583008 C-64.26355698 659.03633316 -65.07203583 659.84683624 -65.90501404 660.68190002 C-70.10983713 664.86955061 -74.3842942 668.90933491 -78.89300537 672.76905823 C-82.01753753 675.47672431 -84.99005216 678.34696732 -87.99023438 681.19067383 C-93.18876868 686.08417231 -98.49763791 690.72677503 -104.08007812 695.18286133 C-106.81328324 697.42696658 -109.3991003 699.78435135 -111.99023438 702.19067383 C-116.60044795 706.43364422 -121.39700396 710.31444046 -126.34936523 714.14160156 C-130.34813953 717.24077387 -134.22210988 720.44929723 -138.05273438 723.75317383 C-144.6757511 729.43496636 -151.62910747 734.62774389 -158.64697266 739.80834961 C-160.62422359 741.27595567 -162.58858407 742.75904394 -164.54882812 744.24926758 C-196.05049746 768.1733253 -229.36129514 789.6770379 -263.67773438 809.31567383 C-264.46470703 809.76652344 -265.25167969 810.21737305 -266.0625 810.68188477 C-331.10330464 847.77773104 -399.98870218 874.45787228 -473.67773438 888.12817383 C-474.91169952 888.35804489 -474.91169952 888.35804489 -476.17059326 888.59255981 C-524.10681034 897.47628114 -577.95738634 893.4330158 -622.31396484 872.41333008 C-626.76707412 870.34545368 -631.29199328 868.44111343 -635.80273438 866.50317383 C-709.29689391 834.60740557 -776.73257121 791.17485706 -835.34960938 736.39770508 C-837.96611565 733.95478143 -840.63274957 731.57323381 -843.30688477 729.19360352 C-848.33661332 724.66940704 -853.16283938 719.97578531 -857.93945312 715.18676758 C-858.77434769 714.35282974 -859.60924225 713.51889191 -860.46943665 712.65968323 C-862.21758718 710.91220756 -863.96449823 709.1634911 -865.71020508 707.41357422 C-868.36557396 704.75283355 -871.02626055 702.09749453 -873.6875 699.44262695 C-875.39680519 697.73266112 -877.10580024 696.02238521 -878.81445312 694.31176758 C-879.60003098 693.52821396 -880.38560883 692.74466034 -881.19499207 691.93736267 C-885.35752903 687.75728437 -889.36469023 683.49856555 -893.20860291 679.0229187 C-895.26705637 676.6308359 -897.41146155 674.32108364 -899.55273438 672.00317383 C-903.64530873 667.51553951 -907.53044272 662.90637155 -911.34179688 658.17895508 C-913.39526822 655.66190743 -915.49286216 653.19063323 -917.61328125 650.72998047 C-923.67345491 643.68019335 -929.27708744 636.34271906 -934.78637695 628.85766602 C-936.28165547 626.84800552 -937.79038959 624.85131382 -939.30932617 622.85961914 C-946.77944508 613.03702798 -953.79919022 602.97619833 -960.61523438 592.69067383 C-961.39769028 591.51329651 -961.39769028 591.51329651 -962.19595337 590.31213379 C-970.44919284 577.87940254 -978.41078313 565.35660147 -985.67773438 552.31567383 C-986.20334961 551.37965332 -986.72896484 550.44363281 -987.27050781 549.47924805 C-1012.64586297 504.11460335 -1033.92144186 454.42586092 -1039.67773438 402.31567383 C-1039.77054688 401.48245605 -1039.86335938 400.64923828 -1039.95898438 399.79077148 C-1043.86519173 361.30765365 -1038.350242 322.06370544 -1013.73608398 291.22558594 C-1004.5283379 280.07625991 -993.54156313 271.80528876 -980.67773438 265.31567383 C-979.75782715 264.84967773 -979.75782715 264.84967773 -978.81933594 264.37426758 C-970.99242085 260.49529878 -963.08163891 257.65426051 -954.61523438 255.50317383 C-953.84937012 255.30828369 -953.08350586 255.11339355 -952.29443359 254.91259766 C-939.17841058 251.8067475 -926.15435582 250.93424547 -912.74023438 251.00317383 C-911.9787207 251.00532898 -911.21720703 251.00748413 -910.43261719 251.00970459 C-861.83042005 251.22894166 -813.82265294 266.53424418 -770.16162109 287.14575195 C-767.49821781 288.40022694 -764.82457181 289.6312312 -762.15039062 290.86254883 C-749.15633844 296.90164934 -736.65021197 303.60238699 -724.26855469 310.80932617 C-721.94010491 312.16312707 -719.60387062 313.501861 -717.26367188 314.83520508 C-693.74224839 328.33046532 -671.18598707 343.81286781 -649.67773438 360.31567383 C-648.67097656 361.07879883 -647.66421875 361.84192383 -646.62695312 362.62817383 C-634.55429906 371.80532373 -622.75915164 381.34441002 -611.36938477 391.3581543 C-607.96414912 394.32485648 -604.48637475 396.88523515 -600.67773438 399.31567383 C-596.84043435 394.0635034 -593.01698222 388.80327948 -589.25024414 383.50024414 C-579.45898528 369.72660782 -569.51313456 356.1301601 -558.76367188 343.08520508 C-555.81493763 339.50354937 -552.95936266 335.85553921 -550.11523438 332.19067383 C-545.00651102 325.6362077 -539.63271859 319.33492565 -534.18505859 313.0612793 C-532.69338115 311.33379408 -531.21652912 309.59477168 -529.74414062 307.85083008 C-523.85901865 300.89319502 -517.79823582 294.14533885 -511.54858398 287.51269531 C-508.59018607 284.37226761 -505.67378674 281.21731825 -502.86523438 277.94067383 C-499.78972403 274.36161645 -496.46986716 271.06923548 -493.08398438 267.78442383 C-491.17022398 265.82095537 -489.39179448 263.83700428 -487.61132812 261.75708008 C-483.22355229 256.70259791 -478.50234157 251.99004899 -473.76245117 247.27001953 C-472.24281769 245.75574803 -470.7286092 244.23619953 -469.21484375 242.71606445 C-464.39412433 237.8923917 -459.51745133 233.19080238 -454.33374023 228.75341797 C-452.17206644 226.87665297 -450.17043035 224.86968352 -448.17773438 222.81567383 C-444.86786739 219.46633654 -441.47026488 216.31641426 -437.89648438 213.25317383 C-435.69373483 211.32964605 -433.54459737 209.35462269 -431.40112305 207.36547852 C-426.19406262 202.53502157 -420.86118599 197.95191997 -415.32617188 193.49536133 C-412.70498319 191.33809984 -410.18619157 189.10256382 -407.67773438 186.81567383 C-402.50226463 182.11143995 -397.12629547 177.69851896 -391.67773438 173.31567383 C-390.56816654 172.41356721 -389.45879997 171.511213 -388.34960938 170.60864258 C-378.77337168 162.84872435 -368.94314599 155.44971993 -359.05566406 148.0925293 C-356.91324679 146.49165528 -354.78108066 144.87863242 -352.65429688 143.25708008 C-335.88315759 130.49166291 -318.49240522 118.5735561 -300.67773438 107.31567383 C-299.80632813 106.76089355 -298.93492187 106.20611328 -298.03710938 105.63452148 C-223.52110228 58.22577043 -141.90199129 19.40831511 -54.24023438 4.56567383 C-53.06928223 4.3669165 -51.89833008 4.16815918 -50.69189453 3.96337891 C-33.76887305 1.21741917 -17.14172257 -0.03682579 0 0 Z M-197.67773438 130.31567383 C-198.27541626 130.58400024 -198.87309814 130.85232666 -199.4888916 131.12878418 C-216.61345738 138.82505491 -233.37238474 146.98546623 -249.67773438 156.31567383 C-250.75780762 156.92717285 -251.83788086 157.53867187 -252.95068359 158.16870117 C-267.1546224 166.23018029 -281.03617341 174.67466063 -294.61523438 183.75317383 C-295.22359131 184.15979248 -295.83194824 184.56641113 -296.45874023 184.98535156 C-305.32076568 190.92590962 -314.02650395 197.07301338 -322.67773438 203.31567383 C-323.54358154 203.93966064 -324.40942871 204.56364746 -325.30151367 205.20654297 C-335.78200359 212.79020051 -345.98621048 220.63680116 -355.94970703 228.88745117 C-358.40927615 230.92029652 -360.88862253 232.92865006 -363.36523438 234.94067383 C-372.50975787 242.44000569 -381.50100685 250.06623966 -390.21289062 258.06567383 C-392.25889392 259.93334086 -394.32790594 261.7593698 -396.42773438 263.56567383 C-408.26222299 273.88373461 -419.44294284 284.91762995 -430.52392578 296.03149414 C-432.70034706 298.2133429 -434.88215676 300.38970296 -437.06445312 302.56567383 C-438.47753474 303.97941535 -439.89030661 305.39346656 -441.30273438 306.80786133 C-441.94138428 307.444487 -442.58003418 308.08111267 -443.23803711 308.73703003 C-447.01895517 312.5374303 -450.61629682 316.45011495 -454.11355591 320.51338196 C-456.52043076 323.28665308 -459.04095307 325.95032085 -461.55273438 328.62817383 C-466.01277793 333.42216523 -470.24082991 338.34078379 -474.34179688 343.44848633 C-477.01648995 346.7314708 -479.78007562 349.92807086 -482.55273438 353.12817383 C-488.49239364 360.01915045 -494.12897423 367.10805852 -499.67773438 374.31567383 C-500.29197266 375.10925293 -500.90621094 375.90283203 -501.5390625 376.72045898 C-509.78407692 387.38135129 -517.85105037 398.10751215 -525.34033203 409.31469727 C-526.7518366 411.4265431 -528.17343099 413.53137949 -529.59570312 415.63598633 C-536.84015021 426.39342647 -543.80659906 437.31670213 -550.67773438 448.31567383 C-547.58133331 452.56010632 -544.56701239 456.69115681 -540.74023438 460.31567383 C-536.81945217 464.14046702 -533.23464085 468.15333646 -529.67773438 472.31567383 C-528.81535156 473.31211914 -527.95296875 474.30856445 -527.06445312 475.33520508 C-514.26207185 490.14737593 -502.0025998 505.26639323 -490.375 521.02172852 C-488.87662736 523.04685931 -487.36651144 525.06222698 -485.84960938 527.07348633 C-447.49334578 578.20569167 -415.67234756 636.49620252 -398.67773438 698.31567383 C-398.30745117 699.65033691 -398.30745117 699.65033691 -397.9296875 701.01196289 C-390.45583897 728.49543635 -388.94928331 756.00903866 -388.67773438 784.31567383 C-346.19568264 771.97142872 -305.4320195 754.35374267 -267.30761719 731.86303711 C-264.62637242 730.28545362 -261.93104427 728.73440779 -259.23242188 727.18676758 C-245.31275688 719.15185913 -231.94020362 710.38784675 -218.67773438 701.31567383 C-217.79843262 700.71609863 -216.91913086 700.11652344 -216.01318359 699.4987793 C-202.90286447 690.53251218 -190.22974078 681.04465505 -177.67773438 671.31567383 C-176.99420898 670.788125 -176.31068359 670.26057617 -175.60644531 669.71704102 C-167.67526739 663.59080569 -159.94345681 657.26418602 -152.33837891 650.73803711 C-150.6214947 649.26750383 -148.89824755 647.8047046 -147.17382812 646.34301758 C-140.94018758 641.04707536 -134.80355935 635.6702791 -128.80126953 630.11303711 C-126.0725382 627.58677488 -123.31233112 625.11199944 -120.49023438 622.69067383 C-116.76381504 619.4657395 -113.33274594 615.98634657 -109.87304688 612.47973633 C-107.9889295 610.62243913 -106.07274475 608.89587739 -104.05273438 607.19067383 C-95.19313228 599.57890302 -86.81149753 591.0587471 -79.27929688 582.13598633 C-77.33736015 579.92880947 -75.27035314 577.88029769 -73.17773438 575.81567383 C-69.80673372 572.48446576 -66.63259408 569.06455755 -63.54882812 565.46801758 C-61.34693609 562.93515221 -59.07577612 560.4723486 -56.80273438 558.00317383 C-52.70893229 553.51419326 -48.8230377 548.90323907 -45.00976562 544.17504883 C-42.97324831 541.67801252 -40.8951546 539.22413435 -38.79370117 536.78173828 C-32.34656418 529.27217764 -26.33165744 521.47022675 -20.38134766 513.5637207 C-18.72532802 511.37847725 -17.04665871 509.2127331 -15.36132812 507.05004883 C8.92492909 475.62685913 29.9069603 441.45361299 48.32226562 406.31567383 C48.79083984 405.42912109 49.25941406 404.54256836 49.7421875 403.62915039 C62.07790975 380.17378065 72.17192007 355.52120478 80.32226562 330.31567383 C80.62326172 329.4051123 80.92425781 328.49455078 81.234375 327.55639648 C86.44514722 311.72131524 90.24176078 295.69393458 93.32226562 279.31567383 C93.59345215 277.91889404 93.59345215 277.91889404 93.87011719 276.49389648 C101.747937 234.35617441 98.30458628 185.07606009 73.75805664 148.83813477 C53.61448452 120.23607461 23.85701412 102.79809141 -10.54663086 96.59643555 C-74.35150608 85.78070075 -139.69446829 104.2139362 -197.67773438 130.31567383 Z M-932.67773438 365.31567383 C-950.96877376 388.59963477 -953.34625585 417.19066532 -950.01757812 445.73754883 C-944.45963321 485.35234672 -926.99211095 523.26427909 -906.67773438 557.31567383 C-906.01692871 558.42410645 -906.01692871 558.42410645 -905.34277344 559.55493164 C-895.15673357 576.49985823 -883.72801665 592.65400453 -871.67773438 608.31567383 C-871.22188965 608.91186523 -870.76604492 609.50805664 -870.29638672 610.12231445 C-860.3848902 623.06182844 -849.64062317 635.26136452 -838.67773438 647.31567383 C-837.88407471 648.19416992 -837.09041504 649.07266602 -836.27270508 649.9777832 C-830.02488018 656.85466231 -823.61667742 663.53429234 -817.03344727 670.09033203 C-815.47684049 671.6415211 -813.92573266 673.19806775 -812.375 674.75512695 C-807.5118197 679.62154033 -802.60563817 684.38955439 -797.37426758 688.86425781 C-794.98107227 690.91168135 -792.67845343 693.0537343 -790.36523438 695.19067383 C-784.96281981 700.11139163 -779.37604578 704.74359936 -773.67773438 709.31567383 C-772.55752921 710.22792672 -771.43775733 711.14071186 -770.31835938 712.05395508 C-751.79270281 727.10399727 -732.41418795 741.43649942 -711.67773438 753.31567383 C-710.45067317 750.86155141 -710.75648667 750.01395644 -711.23632812 747.34692383 C-715.94862514 718.21859424 -715.24181595 687.41618605 -710.67773438 658.31567383 C-710.51144531 657.21255859 -710.34515625 656.10944336 -710.17382812 654.97290039 C-702.68516433 606.25498202 -686.15731601 558.73849533 -665.09130859 514.29858398 C-663.64196659 511.24019701 -662.20855185 508.17464034 -660.77539062 505.10864258 C-653.92515686 490.55302548 -646.48585319 476.37824164 -638.67773438 462.31567383 C-638.18644043 461.43008789 -637.69514648 460.54450195 -637.18896484 459.63208008 C-636.01968489 457.52597975 -634.84934414 455.42047872 -633.67773438 453.31567383 C-638.40464596 448.35879467 -643.4178998 443.97096311 -648.75585938 439.67895508 C-651.58220337 437.39294155 -654.3479329 435.04757042 -657.11523438 432.69067383 C-684.09198634 410.20424574 -713.66059006 390.74148956 -744.67773438 374.31567383 C-745.5053125 373.87658691 -746.33289062 373.4375 -747.18554688 372.98510742 C-798.74906236 345.8661615 -885.36938327 314.01830496 -932.67773438 365.31567383 Z M-581.67773438 506.31567383 C-609.86144795 571.72742625 -636.34412564 649.71412781 -608.59570312 719.80004883 C-595.75863064 750.7565602 -571.08565996 775.3424616 -540.24023438 788.34301758 C-530.08328763 791.96811206 -517.51045026 791.93565558 -507.67773438 787.31567383 C-493.62079501 779.08159073 -485.4181276 763.89932652 -481.19995117 748.63427734 C-470.22051222 706.03905581 -484.92338569 659.60725216 -503.67773438 621.31567383 C-504.32882012 619.95892415 -504.97986303 618.60215391 -505.63085938 617.24536133 C-522.89039588 581.69422952 -545.16192619 549.70306568 -570.14111328 519.19750977 C-571.59101024 517.42188127 -573.03253481 515.63986988 -574.47070312 513.85473633 C-575.68693359 512.35040039 -575.68693359 512.35040039 -576.92773438 510.81567383 C-577.63414062 509.93911133 -578.34054687 509.06254883 -579.06835938 508.15942383 C-579.59945312 507.55098633 -580.13054687 506.94254883 -580.67773438 506.31567383 C-581.00773437 506.31567383 -581.33773437 506.31567383 -581.67773438 506.31567383 Z " fill="#FFB7A9" transform="translate(2524.677734375,835.684326171875)"/>
<path d="M0 0 C0.71800781 0.556875 1.43601562 1.11375 2.17578125 1.6875 C24.7157588 20.07932204 36.24842581 50.22346066 39.25878906 78.42431641 C45.89918804 145.86363724 19.03358723 214.5151288 -14 272 C-14.90274658 273.57515381 -14.90274658 273.57515381 -15.82373047 275.18212891 C-30.63166931 300.89009487 -47.05545045 325.38385707 -65 349 C-65.75667969 350.00289062 -66.51335938 351.00578125 -67.29296875 352.0390625 C-80.4183627 369.29692144 -94.3914704 385.99303667 -109.13671875 401.890625 C-111.03694704 403.85975474 -111.03694704 403.85975474 -112 406 C-111.27578857 406.26321045 -110.55157715 406.5264209 -109.80541992 406.79760742 C-106.94616617 408.02307298 -104.65710557 409.45414206 -102.11328125 411.23828125 C-101.18435059 411.88667969 -100.25541992 412.53507812 -99.29833984 413.203125 C-97.82034912 414.24726562 -97.82034912 414.24726562 -96.3125 415.3125 C-95.28592285 416.03308594 -94.2593457 416.75367188 -93.20166016 417.49609375 C-90.12949233 419.65715883 -87.06354936 421.82673897 -84 424 C-83.1764502 424.58313965 -82.35290039 425.1662793 -81.50439453 425.76708984 C-64.81614849 437.61278043 -48.52341252 449.98492116 -32.7109375 462.9765625 C-29.08730317 465.94722134 -25.39201201 468.81888568 -21.6875 471.6875 C-16.43543492 475.76909227 -11.49707259 480.09578889 -6.62109375 484.625 C-4.10967728 486.90062029 -1.5285476 489.01812311 1.125 491.125 C7.74586223 496.46348576 13.83194599 502.35386154 19.9921875 508.2109375 C23.00757617 511.07520693 26.06685463 513.87512437 29.1875 516.625 C33.93280804 520.84305159 38.38934969 525.33016024 42.82885742 529.86572266 C45.76920102 532.85096026 48.76120317 535.69265922 51.9453125 538.41796875 C56.18183348 542.07747619 59.96192484 546.07211257 63.75 550.1875 C68.60091745 555.40567934 73.48866238 560.56044658 78.5625 565.5625 C82.23482681 569.19153808 85.75568193 572.88686266 89.1015625 576.8203125 C91.1200337 579.13781646 93.20378325 581.38239624 95.30151367 583.62792969 C100.37206932 589.05645319 105.20116851 594.5919053 109.85546875 600.38671875 C111.99874956 602.99847623 114.2238033 605.50365302 116.5 608 C121.20423388 613.17546974 125.61715487 618.5514389 130 624 C130.90210662 625.10956783 131.80446083 626.21893441 132.70703125 627.328125 C141.09020199 637.67273818 149.06445114 648.31013222 157 659 C157.61198242 659.82113281 158.22396484 660.64226563 158.85449219 661.48828125 C166.81239212 672.16693991 174.55547775 682.95724448 182 694 C182.41169434 694.60730957 182.82338867 695.21461914 183.24755859 695.84033203 C233.22309368 769.60620105 276.73542099 854.3066927 295.23828125 986.40625 C295.24802979 987.3613446 295.25777832 988.31643921 295.26782227 989.30047607 C295.43445346 1009.8381875 295.45381995 1029.84519323 291 1050 C290.81276367 1050.86818359 290.62552734 1051.73636719 290.43261719 1052.63085938 C281.05291337 1094.78282715 257.6263492 1132.1997615 221.046875 1155.70654297 C161.78830282 1193.15309776 87.65224617 1189.33597608 21.75 1174.875 C-35.00086268 1161.88296492 -90.72927954 1139.21042951 -141.31884766 1110.51269531 C-144.19441545 1108.89031159 -147.08571419 1107.29881662 -149.98046875 1105.7109375 C-203.53245312 1076.23046931 -253.91777996 1040.53432895 -300.41918945 1000.87988281 C-303.73754759 998.05254048 -307.10215638 995.29352294 -310.5 992.5625 C-315.88573414 988.18315122 -320.94816799 983.49955162 -326.01953125 978.765625 C-328.26598689 976.67089076 -330.54473428 974.62670331 -332.875 972.625 C-342.24981042 964.49620868 -351.20692635 955.88703899 -359.92163086 947.05908203 C-363.22239571 943.7307028 -366.64290899 940.61562124 -370.203125 937.5703125 C-374.48431721 933.82892279 -378.38014424 929.76426802 -382.0625 925.4375 C-385.51394673 921.42255177 -389.23962851 917.72160478 -393 914 C-397.21617504 909.82268624 -401.33561048 905.64314217 -405.171875 901.109375 C-407.16173911 898.81337795 -409.22288869 896.59652245 -411.296875 894.37670898 C-416.34764116 888.97042014 -421.15155904 883.45673747 -425.78515625 877.68359375 C-428.12576787 874.84761459 -430.5709021 872.14147155 -433.0625 869.4375 C-436.80655263 865.36038747 -440.33642153 861.19249531 -443.75390625 856.83984375 C-445.47173549 854.66791008 -447.20713881 852.51821453 -448.96484375 850.37890625 C-456.02171691 841.78653939 -462.83583229 833.05682392 -469.43896484 824.11132812 C-471.05285038 821.92851891 -472.6762477 819.75301848 -474.30078125 817.578125 C-494.06221127 791.04602643 -512.2737322 763.5431779 -529 735 C-529.47324707 734.19771973 -529.94649414 733.39543945 -530.43408203 732.56884766 C-539.57533517 717.03273341 -547.88113379 701.0863939 -556 685 C-556.5259375 683.96423828 -557.051875 682.92847656 -557.59375 681.86132812 C-572.95298156 651.44285 -584.94107878 619.52257299 -595 587 C-595.34466309 585.89350098 -595.68932617 584.78700195 -596.04443359 583.64697266 C-601.92020168 564.40743366 -605.42171994 544.56846729 -609.1796875 524.83203125 C-609.34913376 523.94452682 -609.51858002 523.0570224 -609.69316101 522.1426239 C-616.84603714 484.18315176 -613.06598363 441.55650078 -601 405 C-600.78150391 404.32420898 -600.56300781 403.64841797 -600.33789062 402.95214844 C-596.59623535 391.5832728 -591.24156261 380.95481062 -586 370.21875 C-583.43480024 364.9469109 -581.03493732 359.62123595 -578.6875 354.25 C-550.3441502 290.30535726 -507.37170646 231.82176878 -459.76586914 180.90942383 C-458.4011862 179.43380026 -457.04851049 177.94706678 -455.70092773 176.45581055 C-448.74958025 168.7846736 -441.55139455 161.39647359 -434.21948242 154.08911133 C-432.30074495 152.17577806 -430.38747246 150.25709496 -428.47460938 148.33789062 C-423.01993892 142.88026232 -417.58572127 137.4578299 -411.70239258 132.45727539 C-408.77076576 129.94775575 -405.99409173 127.27238409 -403.1875 124.625 C-398.22161297 119.97810224 -393.14749092 115.55704552 -387.8359375 111.3046875 C-385.14899434 109.12108356 -382.52634971 106.88097699 -379.91162109 104.61230469 C-373.4196625 98.98085441 -366.78216831 93.59957082 -359.90966797 88.43701172 C-357.7479864 86.81036154 -355.59489967 85.17262976 -353.44140625 83.53515625 C-278.11584335 26.43592947 -184.66482409 -27.20680192 0 0 Z M-363.48828125 171.734375 C-365.57693266 173.61838405 -367.68599266 175.47105864 -369.80859375 177.31640625 C-373.86599221 180.86018001 -377.82437963 184.49873271 -381.75 188.1875 C-382.43956787 188.83533447 -383.12913574 189.48316895 -383.83959961 190.15063477 C-391.86961591 197.72529775 -399.87742929 205.33613933 -407.03515625 213.75390625 C-409.18987305 216.2170517 -411.41795868 218.5994343 -413.65844727 220.984375 C-419.7278543 227.44828054 -425.46009241 234.0728187 -431 241 C-431.98128222 242.19158109 -432.96448045 243.38158596 -433.94921875 244.5703125 C-444.49884137 257.34260864 -454.45555219 270.5537633 -463.6875 284.3125 C-464.28437622 285.20014038 -464.28437622 285.20014038 -464.89331055 286.10571289 C-467.21190147 289.61978772 -469.189416 293.20064754 -471 297 C-469.91174927 296.86368164 -469.91174927 296.86368164 -468.80151367 296.72460938 C-410.46257519 289.6339398 -354.01583005 297.61119968 -298 315 C-296.95682617 315.32307129 -295.91365234 315.64614258 -294.83886719 315.97900391 C-255.8675104 328.18782392 -216.43234591 344.61118141 -180.93359375 364.8671875 C-180.10529053 365.33858154 -179.2769873 365.80997559 -178.42358398 366.2956543 C-176.8518267 367.19830246 -175.28699236 368.11315674 -173.73071289 369.04223633 C-173.03582764 369.44466553 -172.34094238 369.84709473 -171.625 370.26171875 C-171.01914063 370.62225342 -170.41328125 370.98278809 -169.7890625 371.35424805 C-167.47543781 372.18933775 -166.27858164 371.84499981 -164 371 C-158.38928069 366.5066188 -153.93328684 360.59851993 -149.4609375 355.01953125 C-147.76468731 352.93825919 -146.05902869 350.90213191 -144.2890625 348.88671875 C-135.61750973 339.01242338 -127.74443931 328.61251602 -120 318 C-119.45811035 317.25814453 -118.9162207 316.51628906 -118.35791016 315.75195312 C-80.19118891 263.23531065 -41.84502812 194.6533925 -50.5078125 127.38671875 C-51.14998582 123.8326216 -51.96420512 120.4582184 -53 117 C-53.3403125 115.82953125 -53.680625 114.6590625 -54.03125 113.453125 C-60.35954795 93.86960837 -72.42202839 80.09887312 -90.1640625 70.2421875 C-175.74842782 27.98092522 -292.97585051 110.58003641 -363.48828125 171.734375 Z M-479 425 C-479.75023438 425.68578125 -480.50046875 426.3715625 -481.2734375 427.078125 C-495.13282209 440.2080683 -508.65760758 459.96485255 -509.375 479.5 C-509.02331633 490.67394946 -505.27482275 499.41274956 -497.21875 507.14453125 C-476.14787386 524.76542239 -448.66373492 527.79377671 -422.21728516 525.7890625 C-389.48314735 522.69662651 -358.39388603 511.2220109 -329 497 C-327.33481641 496.21315851 -325.66945951 495.42668368 -324.00390625 494.640625 C-290.29635723 478.49533576 -258.63676825 456.92496772 -230 433 C-226.6767329 430.32067219 -223.33974196 427.65875336 -220 425 C-242.98846551 402.01153449 -305.7787375 393.51846166 -336 389 C-337.07362793 388.82428467 -337.07362793 388.82428467 -338.16894531 388.64501953 C-387.77640481 380.60024357 -441.71987347 389.7842453 -479 425 Z M-166.1875 457.74609375 C-166.79803223 458.33156982 -167.40856445 458.9170459 -168.03759766 459.52026367 C-169.00898682 460.46929565 -169.00898682 460.46929565 -170 461.4375 C-175.26157641 466.46633586 -180.58991091 471.26389209 -186.28125 475.80859375 C-188.73602807 477.78722952 -191.13602521 479.81816388 -193.52514648 481.87524414 C-201.03082046 488.32487792 -208.83361521 494.33786612 -216.73876953 500.28759766 C-218.96227358 501.97143024 -221.16796922 503.67634027 -223.37109375 505.38671875 C-245.07317672 522.11021196 -268.20821127 537.41589418 -292 551 C-292.95745117 551.55059082 -293.91490234 552.10118164 -294.90136719 552.66845703 C-359.69319011 589.83419306 -427.80122407 614.31407486 -503 613 C-493.73054819 642.04121148 -482.61895842 669.68686474 -469 697 C-468.51950195 697.96502441 -468.03900391 698.93004883 -467.54394531 699.92431641 C-449.06986106 736.76616824 -425.98554398 771.27853028 -401 804 C-400.11587265 805.1640528 -399.23175773 806.32811505 -398.34765625 807.4921875 C-390.05195853 818.37959852 -381.31487897 828.88633122 -372.44140625 839.30419922 C-370.99800384 841.00234846 -369.56118577 842.70590193 -368.125 844.41015625 C-361.7560256 851.93915961 -355.16169143 859.21411869 -348.39453125 866.38671875 C-345.44783659 869.51046099 -342.56661916 872.68877479 -339.6875 875.875 C-333.41375932 882.73956651 -326.81718407 889.29345507 -320.25 895.875 C-319.43431046 896.69457184 -319.43431046 896.69457184 -318.60214233 897.53070068 C-313.14852116 903.00477898 -307.68487909 908.41593466 -301.80615234 913.43896484 C-298.67139568 916.1482963 -295.69406625 919.02526328 -292.6875 921.875 C-287.4605134 926.79493773 -282.14137138 931.45374682 -276.53125 935.93359375 C-273.99861847 938.00112782 -271.5926884 940.16113341 -269.1875 942.375 C-264.21929677 946.89653512 -258.99196423 951.01152206 -253.6875 955.125 C-250.63962751 957.48983975 -247.63514157 959.9033899 -244.6394043 962.33374023 C-210.26349691 990.15879316 -172.83952681 1013.94112203 -134 1035 C-133.22462891 1035.42458496 -132.44925781 1035.84916992 -131.65039062 1036.28662109 C-61.17531994 1074.75734986 29.73050464 1106.83297216 109.9296875 1083.91015625 C142.61529862 1073.64839462 168.79227196 1052.85679234 184.91015625 1022.4765625 C206.33910842 980.09382693 202.77290872 928.77354255 192 884 C191.75797852 882.98679687 191.51595703 881.97359375 191.26660156 880.9296875 C184.61918719 853.62139063 174.86305094 827.45126403 163 802 C162.52449707 800.97213379 162.04899414 799.94426758 161.55908203 798.88525391 C139.35383119 751.06940303 110.96103285 706.13661086 78 665 C77.29230469 664.10925781 76.58460938 663.21851562 75.85546875 662.30078125 C73.91263913 659.85979018 71.95944654 657.4276677 70 655 C68.97519531 653.72962891 68.97519531 653.72962891 67.9296875 652.43359375 C59.39824969 641.92983429 50.61801491 631.64817674 41.44921875 621.6953125 C39.48391282 619.53253563 37.55453186 617.34900302 35.63671875 615.14453125 C25.25690114 603.25565534 14.14310352 592.04286051 3 580.875 C2.46393127 580.33634308 1.92786255 579.79768616 1.37554932 579.2427063 C-4.00004273 573.84663129 -9.391806 568.52286831 -15.18505859 563.56982422 C-18.32194075 560.85659416 -21.30290747 557.97760514 -24.3125 555.125 C-29.53466634 550.20959937 -34.84899232 545.55479904 -40.453125 541.078125 C-43.0700833 538.94281547 -45.56842779 536.71469637 -48.0625 534.4375 C-52.87498495 530.0632005 -57.88273009 526.01023874 -63 522 C-64.00289062 521.20207031 -65.00578125 520.40414062 -66.0390625 519.58203125 C-92.71901646 498.38890599 -120.55664754 479.0526178 -149.5625 461.1875 C-150.55677002 460.57003906 -151.55104004 459.95257812 -152.57543945 459.31640625 C-153.5005835 458.75179688 -154.42572754 458.1871875 -155.37890625 457.60546875 C-156.1994751 457.10168701 -157.02004395 456.59790527 -157.86547852 456.07885742 C-161.68933343 454.14615527 -163.3319838 454.96137197 -166.1875 457.74609375 Z " fill="#FFB7A9" transform="translate(2877,1508)"/>
<path d="M0 0 C2.87556779 1.62238372 5.76686654 3.21387869 8.66162109 4.80175781 C62.21360547 34.282226 112.59893231 69.97836636 159.1003418 109.6328125 C162.41869993 112.46015483 165.78330873 115.21917238 169.18115234 117.95019531 C174.56688648 122.32954409 179.62932033 127.01314369 184.70068359 131.74707031 C186.94713924 133.84180455 189.22588662 135.885992 191.55615234 137.88769531 C201.17042528 146.22142027 210.31886295 155.0758522 219.25927734 164.12207031 C221.99910926 166.82654956 224.8612871 169.33673939 227.78271484 171.84082031 C232.45327742 175.95399065 236.77508209 180.39941976 240.80615234 185.13769531 C244.23398669 189.13420263 247.94170815 192.81175687 251.68115234 196.51269531 C255.89732459 200.69001135 260.01676275 204.86955306 263.85302734 209.40332031 C265.84289145 211.69931736 267.90404104 213.91617286 269.97802734 216.13598633 C275.0287935 221.54227517 279.83271138 227.05595784 284.46630859 232.82910156 C286.80692022 235.66508073 289.25205444 238.37122377 291.74365234 241.07519531 C295.48770498 245.15230784 299.01757388 249.3202 302.43505859 253.67285156 C304.15288784 255.84478523 305.88829116 257.99448078 307.64599609 260.13378906 C314.70286925 268.72615592 321.51698463 277.4558714 328.12011719 286.40136719 C329.73400272 288.5841764 331.35740004 290.75967683 332.98193359 292.93457031 C352.74336362 319.46666889 370.95488455 346.96951741 387.68115234 375.51269531 C388.39102295 376.71611572 388.39102295 376.71611572 389.11523438 377.94384766 C398.25648752 393.4799619 406.56228614 409.42630142 414.68115234 425.51269531 C415.20708984 426.54845703 415.73302734 427.58421875 416.27490234 428.65136719 C431.6341339 459.06984531 443.62223113 490.99012232 453.68115234 523.51269531 C454.02581543 524.61919434 454.37047852 525.72569336 454.72558594 526.86572266 C460.60135402 546.10526166 464.10287228 565.94422802 467.86083984 585.68066406 C468.0302861 586.56816849 468.19973236 587.45567291 468.37431335 588.37007141 C475.52502218 626.31804194 471.73976251 668.97853403 459.68115234 705.51269531 C459.46265625 706.18848633 459.24416016 706.86427734 459.01904297 707.56054688 C455.2773877 718.92942251 449.92271495 729.55788469 444.68115234 740.29394531 C442.11595259 745.56578441 439.71608966 750.89145936 437.36865234 756.26269531 C409.02530255 820.20733805 366.0528588 878.69092653 318.44702148 929.60327148 C317.08233855 931.07889505 315.72966284 932.56562854 314.38208008 934.05688477 C307.43073259 941.72802171 300.2325469 949.11622172 292.90063477 956.42358398 C290.9818973 958.33691725 289.0686248 960.25560035 287.15576172 962.17480469 C281.70109126 967.63243299 276.26687362 973.05486542 270.38354492 978.05541992 C267.45191811 980.56493956 264.67524407 983.24031123 261.86865234 985.88769531 C256.90276531 990.53459307 251.82864326 994.9556498 246.51708984 999.20800781 C243.83014669 1001.39161176 241.20750205 1003.63171832 238.59277344 1005.90039062 C232.10081484 1011.53184091 225.46332065 1016.9131245 218.59082031 1022.07568359 C216.42913875 1023.70233377 214.27605201 1025.34006555 212.12255859 1026.97753906 C136.79699569 1084.07676584 43.34597643 1137.71949724 -78.18383789 1136.7434082 C-109.36423282 1132.32459336 -137.90463861 1118.69383948 -157.72216797 1093.74609375 C-160.59223476 1089.85338504 -163.0315493 1085.76964277 -165.31884766 1081.51269531 C-165.67027832 1080.86075195 -166.02170898 1080.20880859 -166.38378906 1079.53710938 C-190.43470658 1033.91542324 -182.60696202 978.36173756 -168.13134766 931.01269531 C-157.94071884 898.79276948 -144.1503817 867.80284052 -127.31884766 838.51269531 C-126.7170166 837.46259277 -126.11518555 836.41249023 -125.49511719 835.33056641 C-113.21149532 814.00505067 -99.94531732 793.31327144 -85.31884766 773.51269531 C-84.85559082 772.88492188 -84.39233398 772.25714844 -83.91503906 771.61035156 C-74.30178867 758.61964376 -64.43490632 745.87919169 -53.93212891 733.59472656 C-51.52803453 730.77634502 -49.20116771 727.90097578 -46.88134766 725.01269531 C-42.86316151 720.06106483 -38.58974515 715.38691628 -34.21557617 710.75097656 C-31.44452434 707.86809145 -31.44452434 707.86809145 -29.31884766 704.51269531 C-30.04305908 704.24948486 -30.76727051 703.98627441 -31.51342773 703.71508789 C-34.37268149 702.48962233 -36.66174209 701.05855326 -39.20556641 699.27441406 C-40.5994458 698.30145386 -40.5994458 698.30145386 -42.02148438 697.30883789 C-43.00648926 696.61298584 -43.99149414 695.91713379 -45.00634766 695.20019531 C-46.03002441 694.48178467 -47.05370117 693.76337402 -48.10839844 693.02319336 C-51.18371286 690.86022701 -54.25265655 688.68857114 -57.31884766 686.51269531 C-58.58607666 685.61405762 -58.58607666 685.61405762 -59.87890625 684.69726562 C-70.87761333 676.87586158 -81.65986729 668.79024744 -92.31884766 660.51269531 C-92.95338867 660.01995117 -93.58792969 659.52720703 -94.24169922 659.01953125 C-101.13025327 653.65936387 -107.95308684 648.22706303 -114.68994141 642.67675781 C-116.42612924 641.24756307 -118.16823406 639.82552255 -119.91650391 638.41113281 C-130.89027997 629.52221259 -141.51458308 620.23336826 -151.92431641 610.69238281 C-153.94802695 608.850245 -155.99509045 607.04781394 -158.06884766 605.26269531 C-167.65236564 596.91386369 -176.87858012 588.13443262 -185.75512695 579.03955078 C-188.48483056 576.26211714 -191.2869384 573.64916626 -194.24462891 571.11425781 C-198.30957721 567.59696917 -201.94394351 563.78811303 -205.56884766 559.82519531 C-210.2271124 554.78847576 -214.93326841 549.82950761 -219.81884766 545.01269531 C-223.51199215 541.36274549 -227.05542077 537.64829717 -230.42041016 533.69238281 C-232.43888135 531.37487885 -234.5226309 529.13029907 -236.62036133 526.88476562 C-241.69091698 521.45624212 -246.52001616 515.92079002 -251.17431641 510.12597656 C-253.31759721 507.51421908 -255.54265096 505.0090423 -257.81884766 502.51269531 C-262.52308154 497.33722557 -266.93600253 491.96125641 -271.31884766 486.51269531 C-272.22095428 485.40312748 -273.12330849 484.29376091 -274.02587891 483.18457031 C-281.74527489 473.65903781 -289.12640214 463.89401396 -296.43408203 454.05029297 C-298.26109066 451.59045777 -300.09433263 449.13537096 -301.92822266 446.68066406 C-310.01791214 435.81835738 -317.79772296 424.77596416 -325.31884766 413.51269531 C-325.90778809 412.63129883 -326.49672852 411.74990234 -327.10351562 410.84179688 C-377.55957641 335.04367312 -418.7104467 251.07106445 -433.31884766 160.51269531 C-433.48400879 159.53913086 -433.64916992 158.56556641 -433.81933594 157.5625 C-438.95030639 126.3734159 -439.14651574 91.40984255 -432.31884766 60.51269531 C-432.13161133 59.64451172 -431.944375 58.77632812 -431.75146484 57.88183594 C-422.37176102 15.72986816 -398.94519686 -21.68706618 -362.36572266 -45.19384766 C-286.44112264 -93.17196441 -187.33466588 -75.40660835 0 0 Z M-308.95556641 62.30175781 C-337.43928574 96.00500687 -344.28720658 139.55977633 -340.82275391 182.49707031 C-339.40168458 197.39368629 -336.81766255 211.97118739 -333.31884766 226.51269531 C-333.07682617 227.52589844 -332.83480469 228.53910156 -332.58544922 229.58300781 C-325.93803485 256.89130469 -316.18189859 283.06143128 -304.31884766 308.51269531 C-303.84334473 309.54056152 -303.3678418 310.56842773 -302.87792969 311.62744141 C-280.67267884 359.44329229 -252.27988051 404.37608445 -219.31884766 445.51269531 C-218.61115234 446.4034375 -217.90345703 447.29417969 -217.17431641 448.21191406 C-215.23148678 450.65290513 -213.2782942 453.08502761 -211.31884766 455.51269531 C-210.63564453 456.35960937 -209.95244141 457.20652344 -209.24853516 458.07910156 C-200.71709734 468.58286102 -191.93686256 478.86451857 -182.76806641 488.81738281 C-180.80276047 490.98015968 -178.87337951 493.1636923 -176.95556641 495.36816406 C-166.5757488 507.25703997 -155.46195117 518.4698348 -144.31884766 529.63769531 C-143.78277893 530.17635223 -143.24671021 530.71500916 -142.69439697 531.26998901 C-137.31880492 536.66606402 -131.92704166 541.989827 -126.13378906 546.94287109 C-122.99690691 549.65610115 -120.01594019 552.53509017 -117.00634766 555.38769531 C-111.78418132 560.30309594 -106.46985534 564.95789627 -100.86572266 569.43457031 C-98.24876436 571.56987985 -95.75041987 573.79799895 -93.25634766 576.07519531 C-88.44386271 580.44949482 -83.43611756 584.50245658 -78.31884766 588.51269531 C-77.31595703 589.310625 -76.31306641 590.10855469 -75.27978516 590.93066406 C-52.49650224 609.02848273 -28.90107633 625.94468802 -4.31884766 641.51269531 C-3.31160645 642.15432617 -2.30436523 642.79595703 -1.26660156 643.45703125 C1.87327996 645.44930513 5.02499448 647.42132835 8.18115234 649.38769531 C9.16704346 650.01353516 10.15293457 650.639375 11.16870117 651.28417969 C12.09062256 651.85201172 13.01254395 652.41984375 13.96240234 653.00488281 C14.77773437 653.51390137 15.59306641 654.02291992 16.43310547 654.54736328 C18.59813798 655.68612652 18.59813798 655.68612652 20.78442383 655.33349609 C22.86935672 654.43125071 24.12201748 653.4691029 25.74755859 651.88769531 C26.30967041 651.35063965 26.87178223 650.81358398 27.45092773 650.26025391 C28.04252686 649.68355957 28.63412598 649.10686523 29.24365234 648.51269531 C34.30912092 643.68987998 39.46375463 639.11323206 44.92724609 634.73925781 C47.39251166 632.74606437 49.80607036 630.70342254 52.20849609 628.63525391 C59.71411685 622.18711822 67.5155557 616.174236 75.41992188 610.22509766 C77.64342592 608.54126507 79.84912156 606.83635504 82.05224609 605.12597656 C103.75432906 588.40248335 126.88936361 573.09680113 150.68115234 559.51269531 C151.63860352 558.96210449 152.59605469 558.41151367 153.58251953 557.84423828 C218.37434246 520.67850226 286.48237641 496.19862046 361.68115234 497.51269531 C352.41170054 468.47148383 341.30011077 440.82583058 327.68115234 413.51269531 C327.2006543 412.5476709 326.72015625 411.58264648 326.22509766 410.58837891 C304.58391926 367.43056512 276.88984685 326.41013548 246.10498047 289.23632812 C244.09274762 286.80039466 242.10807485 284.34227056 240.11865234 281.88769531 C232.37379574 272.44067242 224.40729269 263.19272899 216.13037109 254.20800781 C214.1662843 252.04657259 212.23825923 249.86435347 210.32177734 247.66113281 C200.09647007 235.94883205 189.15822395 224.89025531 178.18115234 213.88769531 C177.66900177 213.37295654 177.1568512 212.85821777 176.62918091 212.32788086 C171.40206621 207.07990927 166.14338235 201.91917598 160.51367188 197.10009766 C157.37251751 194.37910302 154.38429443 191.49603445 151.36865234 188.63769531 C146.14166574 183.71775758 140.82252373 179.05894849 135.21240234 174.57910156 C132.67977081 172.51156749 130.27384074 170.3515619 127.86865234 168.13769531 C122.90044911 163.61616019 117.67311657 159.50117326 112.36865234 155.38769531 C109.32077986 153.02285556 106.31629392 150.60930542 103.32055664 148.17895508 C68.94464926 120.35390216 31.52067915 96.57157328 -7.31884766 75.51269531 C-8.09421875 75.08811035 -8.86958984 74.66352539 -9.66845703 74.22607422 C-86.44342268 32.31637692 -193.74477373 -5.39327927 -308.95556641 62.30175781 Z M187.68115234 613.51269531 C186.76414551 613.94807617 185.84713867 614.38345703 184.90234375 614.83203125 C150.35171382 631.24003095 118.01346198 653.00662832 88.68115234 677.51269531 C85.35788524 680.19202312 82.0208943 682.85394196 78.68115234 685.51269531 C101.61744702 708.44898998 164.50738379 717.09266466 194.68115234 721.51269531 C195.43460938 721.62983887 196.18806641 721.74698242 196.96435547 721.86767578 C238.95606343 728.22690608 286.94078227 723.6806778 322.36865234 698.63769531 C327.76708046 694.57124511 332.77067403 690.15125789 337.68115234 685.51269531 C338.43138672 684.82691406 339.18162109 684.14113281 339.95458984 683.43457031 C353.81397444 670.30462701 367.33875992 650.54784276 368.05615234 631.01269531 C367.70446867 619.83874585 363.9559751 611.09994575 355.89990234 603.36816406 C309.0689435 564.20495024 235.34411948 590.4235371 187.68115234 613.51269531 Z M21.73583984 740.09472656 C16.90669129 745.03638216 12.42205339 750.13255739 8.10693359 755.52832031 C5.96894478 758.15863183 3.77382544 760.71157912 1.5378418 763.25732422 C-6.63311882 772.59287223 -14.00905426 782.49579203 -21.31884766 792.51269531 C-21.8607373 793.25455078 -22.40262695 793.99640625 -22.9609375 794.76074219 C-61.12765875 847.27738466 -99.47381953 915.85930281 -90.81103516 983.12597656 C-90.16886184 986.68007371 -89.35464254 990.05447691 -88.31884766 993.51269531 C-87.97853516 994.68316406 -87.63822266 995.85363281 -87.28759766 997.05957031 C-80.9592997 1016.64308695 -68.89681927 1030.4138222 -51.15478516 1040.27050781 C-16.26197746 1057.50045504 26.06968233 1049.42923286 61.38061523 1037.74487305 C121.13888655 1017.24452978 175.66491247 981.19177943 222.16943359 938.77832031 C224.25808501 936.89431126 226.367145 935.04163667 228.48974609 933.19628906 C232.54714456 929.6525153 236.50553198 926.01396261 240.43115234 922.32519531 C241.12072021 921.67736084 241.81028809 921.02952637 242.52075195 920.36206055 C250.55076826 912.78739756 258.55858163 905.17655598 265.71630859 896.75878906 C267.8710254 894.29564361 270.09911103 891.91326102 272.33959961 889.52832031 C278.40900665 883.06441477 284.14124475 876.43987661 289.68115234 869.51269531 C290.66243456 868.32111422 291.6456328 867.13110935 292.63037109 865.94238281 C303.17999372 853.17008668 313.13670453 839.95893201 322.36865234 826.20019531 C322.76656982 825.60843506 323.1644873 825.0166748 323.57446289 824.40698242 C325.89305382 820.89290759 327.87056834 817.31204778 329.68115234 813.51269531 C328.95565186 813.60357422 328.23015137 813.69445313 327.48266602 813.78808594 C244.59298049 823.86271854 164.13458399 803.28749377 88.68115234 769.51269531 C86.960979 768.7433667 86.960979 768.7433667 85.20605469 767.95849609 C44.5824062 749.67756943 44.5824062 749.67756943 29.00317383 739.81787109 C25.93900949 738.0955472 24.52027577 737.83027566 21.73583984 740.09472656 Z " fill="#FFB7A9" transform="translate(1264.31884765625,1357.4873046875)"/>
</svg>
